<svg width="10" height="11" viewBox="0 0 10 11" fill="none" xmlns="http://www.w3.org/2000/svg">
<path d="M4.53834 1.10996C4.70914 0.699318 5.29086 0.699318 5.46166 1.10996L6.46974 3.53367C6.54174 3.70679 6.70455 3.82508 6.89144 3.84006L9.50804 4.04983C9.95137 4.08537 10.1311 4.63863 9.79336 4.92796L7.79979 6.63567C7.65739 6.75764 7.59521 6.94903 7.63871 7.13141L8.24778 9.68477C8.35098 10.1174 7.88035 10.4593 7.5008 10.2275L5.26063 8.85919C5.10062 8.76146 4.89938 8.76146 4.73937 8.85919L2.4992 10.2275C2.11965 10.4593 1.64902 10.1174 1.75222 9.68476L2.36129 7.13141C2.40479 6.94903 2.3426 6.75764 2.20021 6.63567L0.206638 4.92796C-0.13113 4.63863 0.0486337 4.08537 0.491961 4.04983L3.10856 3.84006C3.29545 3.82508 3.45826 3.70679 3.53026 3.53367L4.53834 1.10996Z" fill="#0FBD95"/>
</svg>